M48
; DRILL file {KiCad (6.0.0)} date Fri Jan  6 22:04:14 2023
; FORMAT={-:-/ absolute / metric / decimal}
; #@! TF.CreationDate,2023-01-06T22:04:14+00:00
; #@! TF.GenerationSoftware,Kicad,Pcbnew,(6.0.0)
; #@! TF.FileFunction,Plated,1,4,PTH
FMAT,2
METRIC
; #@! TA.AperFunction,Plated,PTH,ViaDrill
T1C0.200
; #@! TA.AperFunction,Plated,PTH,ViaDrill
T2C0.300
; #@! TA.AperFunction,Plated,PTH,ComponentDrill
T3C0.500
; #@! TA.AperFunction,Plated,PTH,ViaDrill
T4C0.600
; #@! TA.AperFunction,Plated,PTH,ComponentDrill
T5C0.600
; #@! TA.AperFunction,Plated,PTH,ComponentDrill
T6C1.000
%
G90
G05
T1
X70.75Y-135.5
X70.75Y-136.6
X71.0Y-113.75
X79.8Y-137.3
X80.1Y-133.5
X81.0Y-132.85
X85.0Y-139.1
X85.25Y-115.25
X87.5Y-128.75
X88.0Y-110.9
X88.6Y-112.016
X88.95Y-121.9
X90.0Y-132.25
X90.0Y-133.05
X90.25Y-121.9
X90.4Y-126.2
X90.6Y-128.2
X90.6Y-130.9
X91.2Y-131.5
X91.25Y-111.0
X91.5Y-133.0
X91.75Y-112.75
X92.0Y-110.5
X92.095Y-125.1
X92.55Y-116.7
X92.65Y-118.2
X92.743Y-109.25
X92.75Y-115.8
X92.75Y-131.25
X92.9Y-104.85
X93.0Y-114.0
X93.596Y-115.584
X93.895Y-122.2
X94.2Y-124.3
X94.318Y-117.329
X94.495Y-121.2
X94.519Y-126.819
X95.25Y-111.067
X95.295Y-121.2
X95.5Y-130.0
X95.9Y-128.5
X96.095Y-121.2
X96.194Y-122.997
X96.862Y-111.542
X96.995Y-123.0
X97.0Y-118.8
X97.25Y-139.5
X97.395Y-121.3
X97.489Y-116.07
X99.2Y-112.6
X99.5Y-119.75
X100.001Y-122.527
X100.9Y-126.2
X101.0Y-122.4
X101.5Y-114.6
X101.785Y-123.4
X101.85Y-124.4
X102.8Y-128.7
X102.8Y-129.4
X102.8Y-130.1
X102.8Y-130.8
X102.8Y-131.5
X102.8Y-132.2
X102.8Y-132.9
X102.8Y-133.6
X102.8Y-134.3
X102.8Y-135.0
X102.8Y-135.7
X102.8Y-136.4
X102.8Y-137.1
X102.8Y-137.8
X102.8Y-138.5
X102.8Y-139.2
X102.8Y-139.9
X102.8Y-140.6
X102.8Y-141.3
X102.85Y-142.0
X102.9Y-142.75
X103.05Y-143.45
X103.35Y-144.1
X103.7Y-144.75
X104.05Y-145.4
X104.3Y-128.7
X104.3Y-129.4
X104.3Y-130.1
X104.3Y-130.8
X104.3Y-131.5
X104.3Y-132.2
X104.3Y-132.9
X104.3Y-133.6
X104.3Y-134.3
X104.3Y-135.0
X104.3Y-135.7
X104.3Y-136.4
X104.3Y-137.1
X104.3Y-137.8
X104.3Y-138.5
X104.3Y-139.2
X104.3Y-139.9
X104.3Y-140.6
X104.3Y-141.3
X104.45Y-142.0
X104.45Y-146.0
X104.65Y-142.7
X104.9Y-146.55
X105.0Y-114.0
X105.0Y-143.35
X105.35Y-144.0
X105.4Y-147.05
X105.75Y-144.6
X105.95Y-108.9
X105.95Y-147.55
X106.2Y-145.2
X106.55Y-147.95
X106.7Y-145.7
X106.8Y-114.0
X107.2Y-148.3
X107.25Y-146.2
X107.295Y-123.35
X107.85Y-146.6
X107.9Y-148.6
X108.5Y-146.95
X108.6Y-148.85
X108.7Y-114.0
X109.2Y-147.25
X109.3Y-149.0
X109.9Y-147.5
X110.0Y-149.15
X110.6Y-147.65
X110.7Y-149.25
X111.3Y-147.75
X111.4Y-149.25
X112.0Y-147.75
X112.1Y-149.25
X113.25Y-108.9
X115.3Y-118.35
X115.6Y-114.6
X117.5Y-114.25
X136.2Y-116.5
X136.4Y-131.3
X136.5Y-139.0
X136.6Y-123.8
X138.0Y-126.0
X138.4Y-139.1
X138.7Y-117.2
X138.8Y-111.4
X138.9Y-124.4
X139.1Y-131.6
X142.0Y-129.4
X142.1Y-121.8
X142.2Y-114.4
X142.2Y-136.8
X143.4Y-108.4
X143.6Y-123.4
X144.3Y-116.9
X146.4Y-121.4
X146.4Y-128.9
X147.5Y-135.0
X149.5Y-128.0
X150.5Y-121.2
X150.6Y-133.6
X151.0Y-126.0
X152.9Y-126.9
X153.0Y-119.5
X153.1Y-134.6
X155.9Y-118.2
X156.8Y-134.4
X157.0Y-127.0
X158.2Y-111.4
X158.2Y-125.2
X158.3Y-132.9
X158.7Y-119.1
X161.2Y-121.2
X161.6Y-108.1
X161.6Y-112.8
X162.3Y-127.8
X162.85Y-133.6
X163.0Y-126.0
X163.15Y-113.6
X164.8Y-125.1
X164.9Y-117.7
X165.1Y-132.6
X165.8Y-112.8
X166.0Y-135.7
X166.9Y-121.1
X167.1Y-129.4
X183.7Y-116.5
X183.9Y-131.3
X184.0Y-139.0
X184.1Y-123.8
X185.5Y-126.0
X185.9Y-140.4
X186.2Y-117.2
X186.3Y-111.4
X186.4Y-124.4
X186.6Y-131.6
X189.5Y-129.4
X189.6Y-121.8
X189.7Y-114.4
X189.7Y-136.8
X190.9Y-108.4
X191.1Y-123.4
X191.8Y-116.9
X191.9Y-131.8
X193.2Y-134.6
X194.0Y-121.3
X194.0Y-128.9
X195.0Y-135.0
X197.0Y-128.0
X198.0Y-121.2
X198.0Y-136.3
X198.1Y-133.6
X198.5Y-126.0
X200.5Y-119.5
X200.5Y-127.0
X200.5Y-134.5
X203.4Y-118.2
X204.3Y-134.4
X204.5Y-127.0
X205.7Y-111.4
X205.7Y-125.2
X205.8Y-132.9
X206.2Y-119.1
X208.7Y-121.2
X208.7Y-128.8
X209.1Y-108.1
X209.1Y-112.8
X209.8Y-127.8
X210.35Y-133.6
X210.5Y-126.0
X210.65Y-113.6
X212.25Y-132.5
X212.3Y-125.1
X212.4Y-117.7
X213.3Y-112.8
X213.5Y-135.7
X214.4Y-121.1
X214.5Y-129.25
X214.6Y-136.9
X229.6Y-130.8
X229.6Y-133.6
X230.0Y-135.7
X233.5Y-135.8
X234.4Y-131.7
X236.0Y-131.8
X237.1Y-133.6
X237.2Y-135.6
X238.0Y-131.75
X239.765Y-132.5
X239.9Y-131.7
X240.0Y-142.4
X240.8Y-135.9
X258.7Y-116.5
X258.9Y-131.3
X259.0Y-139.0
X259.1Y-123.8
X260.5Y-126.0
X260.9Y-141.2
X261.2Y-117.2
X261.3Y-111.4
X261.4Y-124.4
X261.6Y-131.6
X264.5Y-129.4
X264.6Y-121.8
X264.7Y-114.4
X264.7Y-136.8
X265.9Y-108.4
X266.1Y-123.4
X266.8Y-116.9
X267.0Y-131.8
X268.0Y-134.5
X268.9Y-128.9
X269.0Y-121.5
X272.0Y-128.0
X272.9Y-128.7
X273.0Y-121.5
X273.0Y-136.3
X273.1Y-133.6
X273.5Y-126.0
X275.5Y-119.5
X275.5Y-127.0
X275.5Y-134.5
X278.4Y-118.2
X279.5Y-127.0
X279.5Y-134.5
X280.5Y-132.75
X280.7Y-111.4
X280.7Y-125.2
X281.2Y-119.1
X283.7Y-121.2
X284.1Y-108.1
X284.1Y-112.8
X284.8Y-127.8
X285.35Y-133.6
X285.5Y-126.0
X285.65Y-113.6
X287.3Y-125.1
X287.4Y-117.7
X287.6Y-132.6
X288.3Y-112.8
X288.5Y-135.7
X289.4Y-121.1
X289.6Y-129.4
X306.2Y-116.5
X306.4Y-131.3
X306.5Y-139.0
X306.6Y-123.8
X308.0Y-126.0
X308.4Y-142.2
X308.7Y-117.2
X308.8Y-111.4
X308.9Y-124.4
X309.1Y-131.6
X312.0Y-129.4
X312.1Y-121.8
X312.2Y-114.4
X312.2Y-136.8
X313.4Y-108.4
X313.6Y-123.4
X314.3Y-116.9
X314.6Y-131.8
X315.3Y-134.6
X316.4Y-121.4
X316.5Y-129.0
X317.5Y-135.0
X319.5Y-128.0
X320.5Y-121.2
X320.5Y-136.5
X320.6Y-122.0
X320.6Y-133.6
X320.9Y-129.0
X321.0Y-126.0
X323.0Y-119.5
X323.0Y-127.0
X323.0Y-134.5
X325.9Y-118.2
X327.0Y-127.0
X327.0Y-134.5
X328.0Y-132.75
X328.2Y-111.4
X328.2Y-125.2
X328.7Y-119.1
X330.8Y-136.3
X331.1Y-129.0
X331.2Y-121.2
X331.6Y-108.1
X331.6Y-112.8
X332.3Y-127.8
X332.85Y-133.6
X333.0Y-126.0
X333.15Y-113.6
X334.8Y-125.1
X334.9Y-117.7
X335.1Y-132.5
X335.8Y-112.8
X336.0Y-135.75
X336.75Y-129.5
X336.9Y-121.1
T2
X78.05Y-127.9
X92.55Y-125.75
X100.573Y-105.435
X115.375Y-112.125
T3
X67.4Y-127.4
X69.8Y-110.2
X74.5Y-138.25
X78.25Y-110.75
X118.75Y-128.0
X125.5Y-120.0
X125.5Y-122.25
X125.5Y-124.5
X125.5Y-126.75
X125.5Y-129.0
X234.5Y-123.4
X297.3Y-123.4
T4
X69.73Y-133.52
X69.75Y-130.5
X69.75Y-137.5
X73.25Y-133.25
X138.0Y-119.8
X139.3Y-133.6
X141.09Y-113.442
X185.564Y-119.8
X186.8Y-133.6
X188.59Y-113.442
X236.9Y-113.6
X236.9Y-130.226
X260.5Y-119.8
X261.8Y-133.6
X263.59Y-113.442
X308.0Y-119.8
X309.3Y-133.6
X311.09Y-113.442
T6
X118.3Y-104.25
X121.8Y-104.25
T5
X66.61Y-131.43G85X67.41Y-131.43
G05
X66.61Y-140.07G85X67.41Y-140.07
G05
X70.63Y-131.43G85X71.73Y-131.43
G05
X70.63Y-140.07G85X71.73Y-140.07
G05
T0
M30
