%TF.GenerationSoftware,KiCad,Pcbnew,(6.0.0)*%
%TF.CreationDate,2023-01-06T22:04:12+00:00*%
%TF.ProjectId,masa,6d617361-2e6b-4696-9361-645f70636258,A*%
%TF.SameCoordinates,Original*%
%TF.FileFunction,Profile,NP*%
%FSLAX46Y46*%
G04 Gerber Fmt 4.6, Leading zero omitted, Abs format (unit mm)*
G04 Created by KiCad (PCBNEW (6.0.0)) date 2023-01-06 22:04:12*
%MOMM*%
%LPD*%
G01*
G04 APERTURE LIST*
%TA.AperFunction,Profile*%
%ADD10C,0.050000*%
%TD*%
%TA.AperFunction,Profile*%
%ADD11C,0.100000*%
%TD*%
G04 APERTURE END LIST*
D10*
X65000000Y-149000000D02*
G75*
G03*
X66000000Y-150000000I999999J-1D01*
G01*
D11*
X67000000Y-100000000D02*
X364000000Y-100000000D01*
D10*
X365000000Y-101000000D02*
G75*
G03*
X364000000Y-100000000I-999999J1D01*
G01*
D11*
X65000000Y-149000000D02*
X65000000Y-102000000D01*
X364000000Y-150000000D02*
X66000000Y-150000000D01*
D10*
X67000000Y-100000000D02*
G75*
G03*
X65000000Y-102000000I-1J-1999999D01*
G01*
D11*
X365000000Y-101000000D02*
X365000000Y-149000000D01*
D10*
X364000000Y-150000000D02*
G75*
G03*
X365000000Y-149000000I1J999999D01*
G01*
X256666666Y-142500000D02*
G75*
G03*
X256666666Y-142500000I-1666666J0D01*
G01*
X252500000Y-142500000D02*
X257500000Y-142500000D01*
X255000000Y-140000000D02*
X255000000Y-145000000D01*
X304166666Y-142500000D02*
G75*
G03*
X304166666Y-142500000I-1666666J0D01*
G01*
X300000000Y-142500000D02*
X305000000Y-142500000D01*
X302500000Y-140000000D02*
X302500000Y-145000000D01*
X256666666Y-107500000D02*
G75*
G03*
X256666666Y-107500000I-1666666J0D01*
G01*
X252500000Y-107500000D02*
X257500000Y-107500000D01*
X255000000Y-105000000D02*
X255000000Y-110000000D01*
X304166666Y-142500000D02*
G75*
G03*
X304166666Y-142500000I-1666666J0D01*
G01*
X300000000Y-142500000D02*
X305000000Y-142500000D01*
X302500000Y-140000000D02*
X302500000Y-145000000D01*
X181666666Y-107500000D02*
G75*
G03*
X181666666Y-107500000I-1666666J0D01*
G01*
X177500000Y-107500000D02*
X182500000Y-107500000D01*
X180000000Y-105000000D02*
X180000000Y-110000000D01*
X304166666Y-142500000D02*
G75*
G03*
X304166666Y-142500000I-1666666J0D01*
G01*
X300000000Y-142500000D02*
X305000000Y-142500000D01*
X302500000Y-140000000D02*
X302500000Y-145000000D01*
X304166666Y-142500000D02*
G75*
G03*
X304166666Y-142500000I-1666666J0D01*
G01*
X300000000Y-142500000D02*
X305000000Y-142500000D01*
X302500000Y-140000000D02*
X302500000Y-145000000D01*
X294166666Y-142500000D02*
G75*
G03*
X294166666Y-142500000I-1666666J0D01*
G01*
X290000000Y-142500000D02*
X295000000Y-142500000D01*
X292500000Y-140000000D02*
X292500000Y-145000000D01*
X256666666Y-107500000D02*
G75*
G03*
X256666666Y-107500000I-1666666J0D01*
G01*
X252500000Y-107500000D02*
X257500000Y-107500000D01*
X255000000Y-105000000D02*
X255000000Y-110000000D01*
X304166666Y-142500000D02*
G75*
G03*
X304166666Y-142500000I-1666666J0D01*
G01*
X300000000Y-142500000D02*
X305000000Y-142500000D01*
X302500000Y-140000000D02*
X302500000Y-145000000D01*
X219166666Y-107500000D02*
G75*
G03*
X219166666Y-107500000I-1666666J0D01*
G01*
X215000000Y-107500000D02*
X220000000Y-107500000D01*
X217500000Y-105000000D02*
X217500000Y-110000000D01*
X181666666Y-107500000D02*
G75*
G03*
X181666666Y-107500000I-1666666J0D01*
G01*
X177500000Y-107500000D02*
X182500000Y-107500000D01*
X180000000Y-105000000D02*
X180000000Y-110000000D01*
X341666666Y-142500000D02*
G75*
G03*
X341666666Y-142500000I-1666666J0D01*
G01*
X337500000Y-142500000D02*
X342500000Y-142500000D01*
X340000000Y-140000000D02*
X340000000Y-145000000D01*
X171666666Y-107500000D02*
G75*
G03*
X171666666Y-107500000I-1666666J0D01*
G01*
X167500000Y-107500000D02*
X172500000Y-107500000D01*
X170000000Y-105000000D02*
X170000000Y-110000000D01*
X341666666Y-107500000D02*
G75*
G03*
X341666666Y-107500000I-1666666J0D01*
G01*
X337500000Y-107500000D02*
X342500000Y-107500000D01*
X340000000Y-105000000D02*
X340000000Y-110000000D01*
X304166666Y-142500000D02*
G75*
G03*
X304166666Y-142500000I-1666666J0D01*
G01*
X300000000Y-142500000D02*
X305000000Y-142500000D01*
X302500000Y-140000000D02*
X302500000Y-145000000D01*
X294166666Y-107500000D02*
G75*
G03*
X294166666Y-107500000I-1666666J0D01*
G01*
X290000000Y-107500000D02*
X295000000Y-107500000D01*
X292500000Y-105000000D02*
X292500000Y-110000000D01*
X181666666Y-142500000D02*
G75*
G03*
X181666666Y-142500000I-1666666J0D01*
G01*
X177500000Y-142500000D02*
X182500000Y-142500000D01*
X180000000Y-140000000D02*
X180000000Y-145000000D01*
X256666666Y-107500000D02*
G75*
G03*
X256666666Y-107500000I-1666666J0D01*
G01*
X252500000Y-107500000D02*
X257500000Y-107500000D01*
X255000000Y-105000000D02*
X255000000Y-110000000D01*
X181666666Y-142500000D02*
G75*
G03*
X181666666Y-142500000I-1666666J0D01*
G01*
X177500000Y-142500000D02*
X182500000Y-142500000D01*
X180000000Y-140000000D02*
X180000000Y-145000000D01*
X294166666Y-142500000D02*
G75*
G03*
X294166666Y-142500000I-1666666J0D01*
G01*
X290000000Y-142500000D02*
X295000000Y-142500000D01*
X292500000Y-140000000D02*
X292500000Y-145000000D01*
X304166666Y-142500000D02*
G75*
G03*
X304166666Y-142500000I-1666666J0D01*
G01*
X300000000Y-142500000D02*
X305000000Y-142500000D01*
X302500000Y-140000000D02*
X302500000Y-145000000D01*
X256666666Y-142500000D02*
G75*
G03*
X256666666Y-142500000I-1666666J0D01*
G01*
X252500000Y-142500000D02*
X257500000Y-142500000D01*
X255000000Y-140000000D02*
X255000000Y-145000000D01*
X219166666Y-107500000D02*
G75*
G03*
X219166666Y-107500000I-1666666J0D01*
G01*
X215000000Y-107500000D02*
X220000000Y-107500000D01*
X217500000Y-105000000D02*
X217500000Y-110000000D01*
X304166666Y-107500000D02*
G75*
G03*
X304166666Y-107500000I-1666666J0D01*
G01*
X300000000Y-107500000D02*
X305000000Y-107500000D01*
X302500000Y-105000000D02*
X302500000Y-110000000D01*
X341666666Y-142500000D02*
G75*
G03*
X341666666Y-142500000I-1666666J0D01*
G01*
X337500000Y-142500000D02*
X342500000Y-142500000D01*
X340000000Y-140000000D02*
X340000000Y-145000000D01*
X181666666Y-107500000D02*
G75*
G03*
X181666666Y-107500000I-1666666J0D01*
G01*
X177500000Y-107500000D02*
X182500000Y-107500000D01*
X180000000Y-105000000D02*
X180000000Y-110000000D01*
X294166666Y-142500000D02*
G75*
G03*
X294166666Y-142500000I-1666666J0D01*
G01*
X290000000Y-142500000D02*
X295000000Y-142500000D01*
X292500000Y-140000000D02*
X292500000Y-145000000D01*
X304166666Y-107500000D02*
G75*
G03*
X304166666Y-107500000I-1666666J0D01*
G01*
X300000000Y-107500000D02*
X305000000Y-107500000D01*
X302500000Y-105000000D02*
X302500000Y-110000000D01*
X181666666Y-107500000D02*
G75*
G03*
X181666666Y-107500000I-1666666J0D01*
G01*
X177500000Y-107500000D02*
X182500000Y-107500000D01*
X180000000Y-105000000D02*
X180000000Y-110000000D01*
X341666666Y-107500000D02*
G75*
G03*
X341666666Y-107500000I-1666666J0D01*
G01*
X337500000Y-107500000D02*
X342500000Y-107500000D01*
X340000000Y-105000000D02*
X340000000Y-110000000D01*
X304166666Y-107500000D02*
G75*
G03*
X304166666Y-107500000I-1666666J0D01*
G01*
X300000000Y-107500000D02*
X305000000Y-107500000D01*
X302500000Y-105000000D02*
X302500000Y-110000000D01*
X219166666Y-142500000D02*
G75*
G03*
X219166666Y-142500000I-1666666J0D01*
G01*
X215000000Y-142500000D02*
X220000000Y-142500000D01*
X217500000Y-140000000D02*
X217500000Y-145000000D01*
X294166666Y-107500000D02*
G75*
G03*
X294166666Y-107500000I-1666666J0D01*
G01*
X290000000Y-107500000D02*
X295000000Y-107500000D01*
X292500000Y-105000000D02*
X292500000Y-110000000D01*
X341666666Y-107500000D02*
G75*
G03*
X341666666Y-107500000I-1666666J0D01*
G01*
X337500000Y-107500000D02*
X342500000Y-107500000D01*
X340000000Y-105000000D02*
X340000000Y-110000000D01*
X341666666Y-107500000D02*
G75*
G03*
X341666666Y-107500000I-1666666J0D01*
G01*
X337500000Y-107500000D02*
X342500000Y-107500000D01*
X340000000Y-105000000D02*
X340000000Y-110000000D01*
X294166666Y-142500000D02*
G75*
G03*
X294166666Y-142500000I-1666666J0D01*
G01*
X290000000Y-142500000D02*
X295000000Y-142500000D01*
X292500000Y-140000000D02*
X292500000Y-145000000D01*
X341666666Y-107500000D02*
G75*
G03*
X341666666Y-107500000I-1666666J0D01*
G01*
X337500000Y-107500000D02*
X342500000Y-107500000D01*
X340000000Y-105000000D02*
X340000000Y-110000000D01*
X341666666Y-142500000D02*
G75*
G03*
X341666666Y-142500000I-1666666J0D01*
G01*
X337500000Y-142500000D02*
X342500000Y-142500000D01*
X340000000Y-140000000D02*
X340000000Y-145000000D01*
X341666666Y-107500000D02*
G75*
G03*
X341666666Y-107500000I-1666666J0D01*
G01*
X337500000Y-107500000D02*
X342500000Y-107500000D01*
X340000000Y-105000000D02*
X340000000Y-110000000D01*
X181666666Y-142500000D02*
G75*
G03*
X181666666Y-142500000I-1666666J0D01*
G01*
X177500000Y-142500000D02*
X182500000Y-142500000D01*
X180000000Y-140000000D02*
X180000000Y-145000000D01*
X219166666Y-142500000D02*
G75*
G03*
X219166666Y-142500000I-1666666J0D01*
G01*
X215000000Y-142500000D02*
X220000000Y-142500000D01*
X217500000Y-140000000D02*
X217500000Y-145000000D01*
X294166666Y-107500000D02*
G75*
G03*
X294166666Y-107500000I-1666666J0D01*
G01*
X290000000Y-107500000D02*
X295000000Y-107500000D01*
X292500000Y-105000000D02*
X292500000Y-110000000D01*
X134166666Y-107500000D02*
G75*
G03*
X134166666Y-107500000I-1666666J0D01*
G01*
X130000000Y-107500000D02*
X135000000Y-107500000D01*
X132500000Y-105000000D02*
X132500000Y-110000000D01*
X341666666Y-142500000D02*
G75*
G03*
X341666666Y-142500000I-1666666J0D01*
G01*
X337500000Y-142500000D02*
X342500000Y-142500000D01*
X340000000Y-140000000D02*
X340000000Y-145000000D01*
X256666666Y-142500000D02*
G75*
G03*
X256666666Y-142500000I-1666666J0D01*
G01*
X252500000Y-142500000D02*
X257500000Y-142500000D01*
X255000000Y-140000000D02*
X255000000Y-145000000D01*
X341666666Y-107500000D02*
G75*
G03*
X341666666Y-107500000I-1666666J0D01*
G01*
X337500000Y-107500000D02*
X342500000Y-107500000D01*
X340000000Y-105000000D02*
X340000000Y-110000000D01*
X341666666Y-142500000D02*
G75*
G03*
X341666666Y-142500000I-1666666J0D01*
G01*
X337500000Y-142500000D02*
X342500000Y-142500000D01*
X340000000Y-140000000D02*
X340000000Y-145000000D01*
X256666666Y-142500000D02*
G75*
G03*
X256666666Y-142500000I-1666666J0D01*
G01*
X252500000Y-142500000D02*
X257500000Y-142500000D01*
X255000000Y-140000000D02*
X255000000Y-145000000D01*
X341666666Y-107500000D02*
G75*
G03*
X341666666Y-107500000I-1666666J0D01*
G01*
X337500000Y-107500000D02*
X342500000Y-107500000D01*
X340000000Y-105000000D02*
X340000000Y-110000000D01*
X256666666Y-142500000D02*
G75*
G03*
X256666666Y-142500000I-1666666J0D01*
G01*
X252500000Y-142500000D02*
X257500000Y-142500000D01*
X255000000Y-140000000D02*
X255000000Y-145000000D01*
X304166666Y-107500000D02*
G75*
G03*
X304166666Y-107500000I-1666666J0D01*
G01*
X300000000Y-107500000D02*
X305000000Y-107500000D01*
X302500000Y-105000000D02*
X302500000Y-110000000D01*
X294166666Y-107500000D02*
G75*
G03*
X294166666Y-107500000I-1666666J0D01*
G01*
X290000000Y-107500000D02*
X295000000Y-107500000D01*
X292500000Y-105000000D02*
X292500000Y-110000000D01*
X341666666Y-107500000D02*
G75*
G03*
X341666666Y-107500000I-1666666J0D01*
G01*
X337500000Y-107500000D02*
X342500000Y-107500000D01*
X340000000Y-105000000D02*
X340000000Y-110000000D01*
X219166666Y-107500000D02*
G75*
G03*
X219166666Y-107500000I-1666666J0D01*
G01*
X215000000Y-107500000D02*
X220000000Y-107500000D01*
X217500000Y-105000000D02*
X217500000Y-110000000D01*
X219166666Y-142500000D02*
G75*
G03*
X219166666Y-142500000I-1666666J0D01*
G01*
X215000000Y-142500000D02*
X220000000Y-142500000D01*
X217500000Y-140000000D02*
X217500000Y-145000000D01*
X219166666Y-142500000D02*
G75*
G03*
X219166666Y-142500000I-1666666J0D01*
G01*
X215000000Y-142500000D02*
X220000000Y-142500000D01*
X217500000Y-140000000D02*
X217500000Y-145000000D01*
X304166666Y-107500000D02*
G75*
G03*
X304166666Y-107500000I-1666666J0D01*
G01*
X300000000Y-107500000D02*
X305000000Y-107500000D01*
X302500000Y-105000000D02*
X302500000Y-110000000D01*
X294166666Y-142500000D02*
G75*
G03*
X294166666Y-142500000I-1666666J0D01*
G01*
X290000000Y-142500000D02*
X295000000Y-142500000D01*
X292500000Y-140000000D02*
X292500000Y-145000000D01*
X341666666Y-107500000D02*
G75*
G03*
X341666666Y-107500000I-1666666J0D01*
G01*
X337500000Y-107500000D02*
X342500000Y-107500000D01*
X340000000Y-105000000D02*
X340000000Y-110000000D01*
X341666666Y-142500000D02*
G75*
G03*
X341666666Y-142500000I-1666666J0D01*
G01*
X337500000Y-142500000D02*
X342500000Y-142500000D01*
X340000000Y-140000000D02*
X340000000Y-145000000D01*
X304166666Y-107500000D02*
G75*
G03*
X304166666Y-107500000I-1666666J0D01*
G01*
X300000000Y-107500000D02*
X305000000Y-107500000D01*
X302500000Y-105000000D02*
X302500000Y-110000000D01*
X304166666Y-142500000D02*
G75*
G03*
X304166666Y-142500000I-1666666J0D01*
G01*
X300000000Y-142500000D02*
X305000000Y-142500000D01*
X302500000Y-140000000D02*
X302500000Y-145000000D01*
X304166666Y-142500000D02*
G75*
G03*
X304166666Y-142500000I-1666666J0D01*
G01*
X300000000Y-142500000D02*
X305000000Y-142500000D01*
X302500000Y-140000000D02*
X302500000Y-145000000D01*
X304166666Y-107500000D02*
G75*
G03*
X304166666Y-107500000I-1666666J0D01*
G01*
X300000000Y-107500000D02*
X305000000Y-107500000D01*
X302500000Y-105000000D02*
X302500000Y-110000000D01*
X256666666Y-142500000D02*
G75*
G03*
X256666666Y-142500000I-1666666J0D01*
G01*
X252500000Y-142500000D02*
X257500000Y-142500000D01*
X255000000Y-140000000D02*
X255000000Y-145000000D01*
X181666666Y-107500000D02*
G75*
G03*
X181666666Y-107500000I-1666666J0D01*
G01*
X177500000Y-107500000D02*
X182500000Y-107500000D01*
X180000000Y-105000000D02*
X180000000Y-110000000D01*
X341666666Y-107500000D02*
G75*
G03*
X341666666Y-107500000I-1666666J0D01*
G01*
X337500000Y-107500000D02*
X342500000Y-107500000D01*
X340000000Y-105000000D02*
X340000000Y-110000000D01*
X304166666Y-142500000D02*
G75*
G03*
X304166666Y-142500000I-1666666J0D01*
G01*
X300000000Y-142500000D02*
X305000000Y-142500000D01*
X302500000Y-140000000D02*
X302500000Y-145000000D01*
X234166666Y-137300000D02*
G75*
G03*
X234166666Y-137300000I-1666666J0D01*
G01*
X230000000Y-137300000D02*
X235000000Y-137300000D01*
X232500000Y-134800000D02*
X232500000Y-139800000D01*
X304166666Y-107500000D02*
G75*
G03*
X304166666Y-107500000I-1666666J0D01*
G01*
X300000000Y-107500000D02*
X305000000Y-107500000D01*
X302500000Y-105000000D02*
X302500000Y-110000000D01*
X294166666Y-142500000D02*
G75*
G03*
X294166666Y-142500000I-1666666J0D01*
G01*
X290000000Y-142500000D02*
X295000000Y-142500000D01*
X292500000Y-140000000D02*
X292500000Y-145000000D01*
X294166666Y-107500000D02*
G75*
G03*
X294166666Y-107500000I-1666666J0D01*
G01*
X290000000Y-107500000D02*
X295000000Y-107500000D01*
X292500000Y-105000000D02*
X292500000Y-110000000D01*
X171666666Y-142500000D02*
G75*
G03*
X171666666Y-142500000I-1666666J0D01*
G01*
X167500000Y-142500000D02*
X172500000Y-142500000D01*
X170000000Y-140000000D02*
X170000000Y-145000000D01*
X181666666Y-142500000D02*
G75*
G03*
X181666666Y-142500000I-1666666J0D01*
G01*
X177500000Y-142500000D02*
X182500000Y-142500000D01*
X180000000Y-140000000D02*
X180000000Y-145000000D01*
X294166666Y-107500000D02*
G75*
G03*
X294166666Y-107500000I-1666666J0D01*
G01*
X290000000Y-107500000D02*
X295000000Y-107500000D01*
X292500000Y-105000000D02*
X292500000Y-110000000D01*
X294166666Y-107500000D02*
G75*
G03*
X294166666Y-107500000I-1666666J0D01*
G01*
X290000000Y-107500000D02*
X295000000Y-107500000D01*
X292500000Y-105000000D02*
X292500000Y-110000000D01*
X304166666Y-107500000D02*
G75*
G03*
X304166666Y-107500000I-1666666J0D01*
G01*
X300000000Y-107500000D02*
X305000000Y-107500000D01*
X302500000Y-105000000D02*
X302500000Y-110000000D01*
X219166666Y-107500000D02*
G75*
G03*
X219166666Y-107500000I-1666666J0D01*
G01*
X215000000Y-107500000D02*
X220000000Y-107500000D01*
X217500000Y-105000000D02*
X217500000Y-110000000D01*
X294166666Y-142500000D02*
G75*
G03*
X294166666Y-142500000I-1666666J0D01*
G01*
X290000000Y-142500000D02*
X295000000Y-142500000D01*
X292500000Y-140000000D02*
X292500000Y-145000000D01*
X181666666Y-142500000D02*
G75*
G03*
X181666666Y-142500000I-1666666J0D01*
G01*
X177500000Y-142500000D02*
X182500000Y-142500000D01*
X180000000Y-140000000D02*
X180000000Y-145000000D01*
X219166666Y-142500000D02*
G75*
G03*
X219166666Y-142500000I-1666666J0D01*
G01*
X215000000Y-142500000D02*
X220000000Y-142500000D01*
X217500000Y-140000000D02*
X217500000Y-145000000D01*
X256666666Y-107500000D02*
G75*
G03*
X256666666Y-107500000I-1666666J0D01*
G01*
X252500000Y-107500000D02*
X257500000Y-107500000D01*
X255000000Y-105000000D02*
X255000000Y-110000000D01*
X219166666Y-107500000D02*
G75*
G03*
X219166666Y-107500000I-1666666J0D01*
G01*
X215000000Y-107500000D02*
X220000000Y-107500000D01*
X217500000Y-105000000D02*
X217500000Y-110000000D01*
X256666666Y-142500000D02*
G75*
G03*
X256666666Y-142500000I-1666666J0D01*
G01*
X252500000Y-142500000D02*
X257500000Y-142500000D01*
X255000000Y-140000000D02*
X255000000Y-145000000D01*
X341666666Y-142500000D02*
G75*
G03*
X341666666Y-142500000I-1666666J0D01*
G01*
X337500000Y-142500000D02*
X342500000Y-142500000D01*
X340000000Y-140000000D02*
X340000000Y-145000000D01*
X134166666Y-142500000D02*
G75*
G03*
X134166666Y-142500000I-1666666J0D01*
G01*
X130000000Y-142500000D02*
X135000000Y-142500000D01*
X132500000Y-140000000D02*
X132500000Y-145000000D01*
X256666666Y-107500000D02*
G75*
G03*
X256666666Y-107500000I-1666666J0D01*
G01*
X252500000Y-107500000D02*
X257500000Y-107500000D01*
X255000000Y-105000000D02*
X255000000Y-110000000D01*
X341666666Y-142500000D02*
G75*
G03*
X341666666Y-142500000I-1666666J0D01*
G01*
X337500000Y-142500000D02*
X342500000Y-142500000D01*
X340000000Y-140000000D02*
X340000000Y-145000000D01*
X256666666Y-107500000D02*
G75*
G03*
X256666666Y-107500000I-1666666J0D01*
G01*
X252500000Y-107500000D02*
X257500000Y-107500000D01*
X255000000Y-105000000D02*
X255000000Y-110000000D01*
X341666666Y-142500000D02*
G75*
G03*
X341666666Y-142500000I-1666666J0D01*
G01*
X337500000Y-142500000D02*
X342500000Y-142500000D01*
X340000000Y-140000000D02*
X340000000Y-145000000D01*
X341666666Y-142500000D02*
G75*
G03*
X341666666Y-142500000I-1666666J0D01*
G01*
X337500000Y-142500000D02*
X342500000Y-142500000D01*
X340000000Y-140000000D02*
X340000000Y-145000000D01*
X341666666Y-142500000D02*
G75*
G03*
X341666666Y-142500000I-1666666J0D01*
G01*
X337500000Y-142500000D02*
X342500000Y-142500000D01*
X340000000Y-140000000D02*
X340000000Y-145000000D01*
X304166666Y-142500000D02*
G75*
G03*
X304166666Y-142500000I-1666666J0D01*
G01*
X300000000Y-142500000D02*
X305000000Y-142500000D01*
X302500000Y-140000000D02*
X302500000Y-145000000D01*
X241666666Y-137300000D02*
G75*
G03*
X241666666Y-137300000I-1666666J0D01*
G01*
X237500000Y-137300000D02*
X242500000Y-137300000D01*
X240000000Y-134800000D02*
X240000000Y-139800000D01*
M02*
